<svg width="597" height="597" viewBox="0 0 597 597" fill="none" xmlns="http://www.w3.org/2000/svg">
<path d="M3.61364 196.443H593.386V506.074C593.386 522.366 580.19 535.563 563.898 535.563H33.1023C16.8098 535.563 3.61364 522.366 3.61364 506.074V196.443Z" fill="url(#paint0_linear_1_2)"/>
<path d="M593.386 196.443V149.674C593.386 141.86 590.275 134.355 584.746 128.826L557.794 101.873C552.264 96.344 544.76 93.2329 536.945 93.2329H60.0549C52.2404 93.2329 44.7355 96.344 39.2064 101.873L12.2538 128.826C6.72469 134.355 3.61364 141.86 3.61364 149.674V196.443H593.386Z" fill="url(#paint1_linear_1_2)"/>
<path d="M394.338 49H202.662C190.454 49 180.545 58.9082 180.545 71.1165V93.233H416.455V71.1165C416.455 58.9082 406.546 49 394.338 49Z" fill="url(#paint2_linear_1_2)"/>
<g filter="url(#filter0_d_1_2)">
<path d="M460.687 166.955H490.176C498.315 166.955 504.92 173.56 504.92 181.699V240.676C504.92 248.815 498.315 255.42 490.176 255.42H460.687C452.549 255.42 445.943 248.815 445.943 240.676V181.699C445.943 173.56 452.549 166.955 460.687 166.955Z" fill="white"/>
</g>
<g filter="url(#filter1_d_1_2)">
<path d="M106.824 166.955H136.312C144.451 166.955 151.057 173.56 151.057 181.699V240.676C151.057 248.815 144.451 255.42 136.312 255.42H106.824C98.685 255.42 92.0795 248.815 92.0795 240.676V181.699C92.0795 173.56 98.685 166.955 106.824 166.955Z" fill="white"/>
</g>
<g filter="url(#filter2_d_1_2)">
<path d="M335.215 411.467C330.923 418.584 326.549 425.784 322.257 432.942C319.559 428.508 316.901 424.156 314.244 419.682C303.983 421.919 293.356 421.919 283.094 419.682C280.396 424.115 277.739 428.468 275.082 432.942C270.544 425.742 266.497 417.972 261.592 411.1C239.313 398.245 225.536 372.703 226.926 347.119C227.541 322.146 242.664 298.432 264.862 286.964V271.1H332.476V286.963C354.919 298.433 369.963 322.431 370.494 347.609C371.352 379.05 355.9 398.899 335.215 411.467ZM410.719 338.618C405.936 337.845 396.493 337.032 387.54 335.405C386.549 329.581 385.017 323.862 382.962 318.321C388.971 313.359 395.062 308.397 401.071 303.434C398.124 296.958 394.565 290.775 390.443 284.968C383.085 287.694 375.768 290.377 368.369 293.144C364.576 288.558 360.346 284.349 355.736 280.577C358.477 273.255 361.214 265.975 363.953 258.652C358.132 254.527 351.915 250.986 345.394 248.079C340.406 254.058 335.405 260.064 330.391 266.097C324.828 264.034 319.078 262.509 313.222 261.542C311.913 253.855 310.649 246.167 309.338 238.439C302.213 237.788 295.043 237.788 287.918 238.439C286.609 246.126 285.345 253.814 284.034 261.542C278.181 262.528 272.434 264.053 266.865 266.097C261.877 260.118 256.877 254.112 251.863 248.079C245.354 251.011 239.139 254.551 233.303 258.652C236.044 265.973 238.781 273.254 241.52 280.577C236.907 284.319 232.701 288.532 228.97 293.145C221.612 290.418 214.213 287.736 206.895 284.97C202.743 290.765 199.169 296.95 196.226 303.436C202.235 308.398 208.326 313.36 214.335 318.323C212.243 323.853 210.709 329.575 209.757 335.407C202.031 336.709 194.262 337.967 186.497 339.271C185.863 346.348 185.863 353.467 186.497 360.544C194.141 361.846 201.908 363.104 209.675 364.408C210.642 370.223 212.175 375.931 214.254 381.45C208.244 386.413 202.153 391.375 196.144 396.378C199.081 402.867 202.655 409.052 206.814 414.843C214.172 412.116 221.571 409.433 228.888 406.667C232.63 411.271 236.835 415.483 241.438 419.235C238.697 426.557 235.96 433.838 233.222 441.161C239.043 445.285 245.259 448.827 251.781 451.734C256.768 445.755 261.756 439.695 266.784 433.715C272.341 435.797 278.092 437.323 283.953 438.27C285.261 445.917 286.526 453.646 287.837 461.333C294.962 461.984 302.132 461.984 309.258 461.333C310.566 453.686 311.831 445.958 313.141 438.27C319.003 437.328 324.755 435.802 330.31 433.715C335.298 439.694 340.285 445.755 345.313 451.734C351.827 448.811 358.042 445.27 363.872 441.161C361.131 433.839 358.394 426.559 355.656 419.235C360.275 415.473 364.506 411.263 368.286 406.667C375.645 409.394 382.962 412.077 390.361 414.843C394.5 409.047 398.06 402.862 400.989 396.376C395.06 391.374 389.011 386.411 382.961 381.449C385.054 375.934 386.588 370.225 387.54 364.407C395.266 363.105 403.035 361.847 410.8 360.542C411.087 354.238 411.005 342.89 410.719 338.617V338.618Z" fill="white"/>
<path fill-rule="evenodd" clip-rule="evenodd" d="M329.279 274.245H268.018V290.266H283.057V287.005H291.088V316.927H287.892V329.769H309.364V316.927H306.166V287.044H314.28V290.224H329.237V274.245" fill="white"/>
<path fill-rule="evenodd" clip-rule="evenodd" d="M265.313 298.768V311.567H268.591V362.851L265.313 362.769V375.611H286.868V362.771H283.671V349.972H313.709V362.771H310.51V375.613H331.941V362.771H328.745V311.528L331.941 311.61V298.811H310.51V311.61H313.706V337.17H283.668V311.61H286.864V298.811L265.313 298.768Z" fill="white"/>
<path fill-rule="evenodd" clip-rule="evenodd" d="M298.71 387.575L322.253 426.629L353.055 375.386H360.725V362.626H335.103V375.425H338.123L322.17 401.761L298.587 362.626L275.087 401.802L259.298 375.386H262.319V362.626H236.614V375.425H244.325L275.169 426.668L298.709 387.573" fill="white"/>
</g>
<defs>
<filter id="filter0_d_1_2" x="429.487" y="153.725" width="91.8904" height="121.379" filterUnits="userSpaceOnUse" color-interpolation-filters="sRGB">
<feFlood flood-opacity="0" result="BackgroundImageFix"/>
<feColorMatrix in="SourceAlpha" type="matrix" values="0 0 0 0 0 0 0 0 0 0 0 0 0 0 0 0 0 0 127 0" result="hardAlpha"/>
<feOffset dy="3.22678"/>
<feGaussianBlur stdDeviation="8.22829"/>
<feComposite in2="hardAlpha" operator="out"/>
<feColorMatrix type="matrix" values="0 0 0 0 0 0 0 0 0 0 0 0 0 0 0 0 0 0 0.45 0"/>
<feBlend mode="normal" in2="BackgroundImageFix" result="effect1_dropShadow_1_2"/>
<feBlend mode="normal" in="SourceGraphic" in2="effect1_dropShadow_1_2" result="shape"/>
</filter>
<filter id="filter1_d_1_2" x="75.623" y="153.725" width="91.8904" height="121.379" filterUnits="userSpaceOnUse" color-interpolation-filters="sRGB">
<feFlood flood-opacity="0" result="BackgroundImageFix"/>
<feColorMatrix in="SourceAlpha" type="matrix" values="0 0 0 0 0 0 0 0 0 0 0 0 0 0 0 0 0 0 127 0" result="hardAlpha"/>
<feOffset dy="3.22678"/>
<feGaussianBlur stdDeviation="8.22829"/>
<feComposite in2="hardAlpha" operator="out"/>
<feColorMatrix type="matrix" values="0 0 0 0 0 0 0 0 0 0 0 0 0 0 0 0 0 0 0.45 0"/>
<feBlend mode="normal" in2="BackgroundImageFix" result="effect1_dropShadow_1_2"/>
<feBlend mode="normal" in="SourceGraphic" in2="effect1_dropShadow_1_2" result="shape"/>
</filter>
<filter id="filter2_d_1_2" x="181.719" y="237.951" width="233.562" height="232.475" filterUnits="userSpaceOnUse" color-interpolation-filters="sRGB">
<feFlood flood-opacity="0" result="BackgroundImageFix"/>
<feColorMatrix in="SourceAlpha" type="matrix" values="0 0 0 0 0 0 0 0 0 0 0 0 0 0 0 0 0 0 127 0" result="hardAlpha"/>
<feOffset dy="4.30238"/>
<feGaussianBlur stdDeviation="2.15119"/>
<feComposite in2="hardAlpha" operator="out"/>
<feColorMatrix type="matrix" values="0 0 0 0 0 0 0 0 0 0 0 0 0 0 0 0 0 0 0.25 0"/>
<feBlend mode="normal" in2="BackgroundImageFix" result="effect1_dropShadow_1_2"/>
<feBlend mode="normal" in="SourceGraphic" in2="effect1_dropShadow_1_2" result="shape"/>
</filter>
<linearGradient id="paint0_linear_1_2" x1="298.5" y1="197.225" x2="298.5" y2="538.01" gradientUnits="userSpaceOnUse">
<stop offset="0.88" stop-color="#0A42A1"/>
<stop offset="0.883" stop-color="#2167B6"/>
<stop offset="0.886" stop-color="#2872BC"/>
</linearGradient>
<linearGradient id="paint1_linear_1_2" x1="281.544" y1="100.398" x2="281.544" y2="196.443" gradientUnits="userSpaceOnUse">
<stop stop-color="#2575D2"/>
<stop offset="1" stop-color="#2062AE"/>
</linearGradient>
<linearGradient id="paint2_linear_1_2" x1="180.545" y1="71.1165" x2="416.455" y2="71.1165" gradientUnits="userSpaceOnUse">
<stop stop-color="#5E5E5E"/>
<stop offset="1" stop-color="#545454"/>
</linearGradient>
</defs>
</svg>
