<svg width="597" height="597" viewBox="0 0 597 597" fill="none" xmlns="http://www.w3.org/2000/svg">
<path d="M404.659 134.125C361.139 134.125 235.861 134.125 192.341 134.125C128.389 134.125 66.8875 207.721 66.8875 298.5C66.8875 389.279 128.389 462.875 192.352 462.875C235.872 462.875 361.15 462.875 404.67 462.875C468.622 462.875 530.134 389.279 530.134 298.5C530.134 207.721 468.611 134.125 404.659 134.125Z" fill="url(#paint0_radial_34_2)"/>
<path d="M404.659 123.167H192.341C119.683 123.167 55.95 205.102 55.95 298.5C55.95 391.898 119.683 473.833 192.341 473.833H404.659C477.317 473.833 541.05 391.898 541.05 298.5C541.05 205.102 477.317 123.167 404.659 123.167ZM386.525 309.458H441.672C440.753 333.194 436.969 355.242 431.183 374.562H381.439C384.469 352.525 386.087 329.709 386.525 309.458ZM381.439 222.438H431.183C436.969 241.758 440.753 263.806 441.672 287.542H386.525C386.087 267.291 384.469 244.475 381.439 222.438ZM463.536 309.458H518.727C517.359 332.734 511.737 354.903 502.922 374.562H454.009C459.391 354.552 462.727 332.548 463.536 309.458ZM463.536 287.542C462.716 264.452 459.38 242.448 454.009 222.438H502.922C511.748 242.108 517.37 264.266 518.727 287.542H463.536ZM491.186 200.522H447.141C438.795 178.09 427.727 159.307 414.919 145.839C444.723 149.763 472.002 170.496 491.186 200.522ZM423.373 200.522H377.873C373.761 178.835 368.073 159.176 360.603 145.083H369.266C388.231 145.083 408.936 166.419 423.373 200.522ZM287.562 309.458V374.562H237.348C234.647 355.801 232.766 333.983 232.328 309.458H287.562ZM232.328 287.542C232.766 263.017 234.636 241.199 237.338 222.438H287.562V287.542H232.328ZM241.122 396.478H287.562V451.917H263.38C257.298 449.846 247.991 430.263 241.122 396.478ZM333.883 451.917H309.437V396.478H355.911C349.053 430.362 339.756 449.988 333.883 451.917ZM309.437 374.562V309.458H364.672C364.234 333.983 362.364 355.801 359.662 374.562H309.437ZM309.437 287.542V222.438H359.652C362.353 241.199 364.223 263.017 364.661 287.542H309.437ZM333.664 145.083C339.745 147.242 349.031 166.836 355.878 200.522H309.437V145.083H333.664ZM287.562 145.083V200.522H241.089C247.947 166.638 257.233 147.012 263.117 145.083H287.562ZM236.397 145.083C228.916 159.165 223.228 178.824 219.116 200.522H173.616C188.064 166.419 208.758 145.083 227.723 145.083H236.397ZM78.2625 309.458H133.453C134.273 332.548 137.609 354.552 142.98 374.562H94.0781C85.2516 354.903 79.6297 332.734 78.2625 309.458ZM78.2625 287.542C79.6297 264.266 85.2516 242.097 94.0672 222.438H142.98C137.609 242.448 134.273 264.452 133.464 287.542H78.2625ZM155.328 309.458H210.475C210.912 329.709 212.531 352.525 215.561 374.562H165.817C160.042 355.242 156.247 333.194 155.328 309.458ZM210.475 287.542H155.328C156.247 263.806 160.031 241.758 165.817 222.438H215.561C212.531 244.475 210.912 267.291 210.475 287.542ZM182.07 145.829C169.262 159.296 158.205 178.09 149.859 200.511H105.814C124.998 170.496 152.277 149.763 182.07 145.829ZM105.814 396.478H149.859C158.205 418.91 169.273 437.693 182.081 451.161C152.277 447.237 124.998 426.504 105.814 396.478ZM173.627 396.478H219.127C223.239 418.165 228.927 437.824 236.397 451.917H227.734C208.769 451.917 188.064 430.581 173.627 396.478ZM360.603 451.917C368.084 437.835 373.772 418.176 377.884 396.478H423.384C408.936 430.581 388.242 451.917 369.277 451.917H360.603ZM414.93 451.172C427.737 437.704 438.795 418.91 447.141 396.489H491.186C472.002 426.504 444.723 447.237 414.93 451.172Z" fill="url(#paint1_linear_34_2)"/>
<defs>
<radialGradient id="paint0_radial_34_2" cx="0" cy="0" r="1" gradientUnits="userSpaceOnUse" gradientTransform="translate(130.948 69.0763) scale(457.33 458.201)">
<stop stop-color="#6FCEFC"/>
<stop offset="1" stop-color="#167CF7"/>
</radialGradient>
<linearGradient id="paint1_linear_34_2" x1="428.919" y1="123.167" x2="200.456" y2="529.595" gradientUnits="userSpaceOnUse">
<stop stop-color="#2471CA"/>
<stop offset="1" stop-color="#123864"/>
</linearGradient>
</defs>
</svg>
