<svg width="597" height="597" viewBox="0 0 597 597" fill="none" xmlns="http://www.w3.org/2000/svg">
<g clip-path="url(#clip0_25_24)">
<path d="M547.25 298.5C547.25 435.872 435.872 547.25 298.5 547.25C161.128 547.25 49.75 435.872 49.75 298.5C49.75 161.128 161.128 49.75 298.5 49.75C435.872 49.75 547.25 161.128 547.25 298.5Z" fill="url(#paint0_linear_25_24)"/>
<path opacity="0.05" d="M460.187 335.837C460.187 344.009 457.513 352.242 452.016 359.12C439.143 375.215 415.661 377.814 399.567 364.954L298.5 284.097L197.433 364.954C181.339 377.826 157.857 375.215 144.984 359.12C132.111 343.014 134.735 319.544 150.817 306.671L275.192 207.171C288.824 196.276 308.176 196.276 321.808 207.171L446.183 306.671C455.399 314.047 460.187 324.892 460.187 335.837Z" fill="black"/>
<path opacity="0.07" d="M453.969 335.837C453.969 342.653 451.742 349.506 447.153 355.24C436.419 368.647 416.855 370.824 403.448 360.09L298.5 276.125L193.552 360.09C180.145 370.824 160.581 368.647 149.847 355.24C139.114 341.82 141.303 322.268 154.698 311.534L279.073 212.034C290.428 202.955 306.56 202.955 317.927 212.034L442.302 311.534C449.976 317.679 453.969 326.708 453.969 335.837Z" fill="black"/>
<path d="M447.75 335.825C447.75 341.273 445.971 346.758 442.302 351.347C433.72 362.068 418.074 363.809 407.34 355.227L298.512 268.165L189.684 355.227C178.951 363.809 163.304 362.068 154.722 351.347C146.128 340.613 147.882 324.967 158.603 316.385L282.978 216.885C292.057 209.622 304.98 209.622 314.059 216.885L438.434 316.385C444.553 321.298 447.75 328.537 447.75 335.825Z" fill="white"/>
</g>
<defs>
<linearGradient id="paint0_linear_25_24" x1="432.253" y1="49.75" x2="64.5404" y2="522.618" gradientUnits="userSpaceOnUse">
<stop stop-color="#2471CA"/>
<stop offset="1" stop-color="#123864"/>
</linearGradient>
<clipPath id="clip0_25_24">
<rect width="597" height="597" fill="white"/>
</clipPath>
</defs>
</svg>
