<svg width="597" height="597" viewBox="0 0 597 597" fill="none" xmlns="http://www.w3.org/2000/svg">
<path d="M206.467 140.729H535.157C549.685 140.729 561.452 152.496 561.452 167.024V482.566C561.452 497.094 549.685 508.861 535.157 508.861H114.434C99.9062 508.861 88.1392 497.094 88.1392 482.566V259.057L206.467 140.729Z" fill="#199BE2"/>
<path opacity="0.05" d="M88.1392 482.566V140.729H535.156V434.17C535.156 460.899 513.489 482.566 486.76 482.566H88.1392Z" fill="black"/>
<path opacity="0.07" d="M88.1392 469.418V207.243C88.1392 170.508 117.918 140.729 154.653 140.729H522.009V432.092C522.009 452.708 505.298 469.418 484.683 469.418H88.1392Z" fill="black"/>
<path d="M167.024 88.1389H482.566C497.094 88.1389 508.861 99.906 508.861 114.434V429.976C508.861 444.504 497.094 456.271 482.566 456.271H61.8435C47.3154 456.271 35.5483 444.504 35.5483 429.976V219.615L167.024 88.1389Z" fill="#50E6FF"/>
<path d="M35.5483 219.615H140.729C155.257 219.615 167.024 207.848 167.024 193.319V88.1389L35.5483 219.615Z" fill="url(#paint0_linear_24_8)"/>
<defs>
<linearGradient id="paint0_linear_24_8" x1="136.634" y1="88.1389" x2="39.457" y2="213.105" gradientUnits="userSpaceOnUse">
<stop stop-color="#2471CA"/>
<stop offset="1" stop-color="#123864"/>
</linearGradient>
</defs>
</svg>
