<svg width="264" height="199" viewBox="0 0 264 199" fill="none" xmlns="http://www.w3.org/2000/svg">
<g clip-path="url(#clip0_23_5)">
<path d="M263.541 35.8558H0V199H263.541V35.8558Z" fill="white"/>
<path d="M262.644 36.7522H0.896362V198.104H262.644V36.7522Z" stroke="black" stroke-width="1.79279"/>
<path d="M252.784 46.6127H10.7567V188.243H252.784V46.6127Z" fill="#192E97"/>
<path d="M128.454 126.75C128.613 129.765 128.099 132.776 126.949 135.567C125.8 138.358 124.043 140.858 121.808 142.886C118.034 146.232 112.795 147.905 106.088 147.905C102.617 147.986 99.1612 147.424 95.8946 146.247C93.0853 145.167 90.5749 143.43 88.5728 141.182C86.9028 139.319 85.6227 137.139 84.808 134.773C83.9858 132.18 83.5916 129.47 83.6409 126.75V99.2311H77.9039V86.9504H102.644V99.2311H98.521V125.16C98.521 131.002 101.046 133.923 106.096 133.922C111.086 133.922 113.581 131.001 113.581 125.16V99.2311H109.36V86.9504H134.101V99.2311H128.454V126.75ZM185.644 126.93V146.74H139.39V134.459H145.126V99.2311H139.39V86.9504H165.744V99.2311H160.007V133.653H170.763V126.93H185.644Z" fill="white"/>
<path d="M213.816 177.069H214.832V179.279H210.105V177.069H211.137V170.873H210.062V172.244H207.964V168.522H216.984V172.25H214.886V170.878H213.821L213.816 177.069ZM224.707 170.728H223.69V168.522H228.418V170.728H227.385V177.069H228.418V179.279H223.69V177.069H224.707V175.084H221.367V177.069H222.4V179.279H217.654V177.069H218.687V170.728H217.654V168.522H222.398V170.728H221.365V172.567H224.707V170.728ZM240.632 179.279H238.18L236.437 173.184L234.727 179.279H232.323L229.902 170.728H229.006V168.522H233.694V170.728H232.662L233.694 174.761L235.275 168.522H237.567L239.338 174.697L240.259 170.728H239.212V168.522H243.94V170.728H242.811L240.632 179.279Z" fill="white"/>
<path d="M132.667 21.5135C138.607 21.5135 143.423 16.6975 143.423 10.7568C143.423 4.81596 138.607 0 132.667 0C126.726 0 121.91 4.81596 121.91 10.7568C121.91 16.6975 126.726 21.5135 132.667 21.5135Z" fill="black"/>
</g>
<defs>
<clipPath id="clip0_23_5">
<rect width="263.541" height="199" fill="white"/>
</clipPath>
</defs>
</svg>
